#!OML:ASF I:\Actors\actors\Patient Classification 1\Patient 1\Session 1\Subject1.ASF
:FULLY-SPECIFIED
:DEGREES
892
root 0.239782 17.6192 8.60049 11.9326 1.81725 -9.37335
lowerback 8.06058 1.34784 3.59499
upperback 1.0831 2.04483 -1.62667
thorax -3.20927 0.965471 -3.92747
lowerneck 6.32255 -0.260582 0.345838
upperneck 3.08935 -0.391296 11.1755
head -0.0984121 -0.259476 3.56137
rclavicle -3.93594e-014 -4.77083e-015
rhumerus -23.9006 42.1056 -64.8441
rradius 140.03
rwrist -35.0041
rhand 66.0044 -43.6982
rfingers 7.12502
rthumb 74.7665 10.7867
lclavicle -3.93594e-014 -4.77083e-015
lhumerus 0.999158 -61.3968 46.7465
lradius 139.543
lwrist 28.0808
lhand -3.39357 -36.6904
lfingers 7.12502
lthumb 22.3362 -7.96154
rfemur -8.98601 20.515 24.0344
rtibia 7.61974
rfoot -14.2659 -24.5627
rtoes -0.238292
lfemur -5.30812 -31.5316 -5.14404
ltibia 0.240182
lfoot -10.86 39.6793
ltoes -4.72691
893
root 0.2391 17.6206 8.59853 12.056 1.86789 -9.68817
lowerback 7.95235 1.33915 3.72116
upperback 1.31556 2.04211 -1.51426
thorax -2.90744 0.974637 -3.87194
lowerneck 6.17644 -0.0427077 0.397381
upperneck 2.90742 -0.0835047 11.1493
head -0.149858 -0.108514 3.53531
rclavicle -4.53229e-014 -4.77083e-015
rhumerus -23.3972 42.6504 -64.464
rradius 139.919
rwrist -34.9062
rhand 63.9883 -42.3607
rfingers 7.12502
rthumb 74.9698 4.70048
lclavicle -4.53229e-014 -4.77083e-015
lhumerus 1.6823 -61.3171 46.0592
lradius 139.38
lwrist 27.9762
lhand -3.21682 -36.6481
lfingers 7.12502
lthumb 22.5059 -7.93967
rfemur -9.23425 20.3085 24.365
rtibia 7.79128
rfoot -14.1878 -24.3519
rtoes -0.52474
lfemur -5.50749 -31.4211 -4.67083
ltibia 0.25626
lfoot -10.8578 39.6664
ltoes -4.76365
894
root 0.240275 17.6252 8.59442 12.224 1.76869 -9.79704
lowerback 7.85724 1.40563 3.67788
upperback 1.48304 2.122 -1.50428
thorax -2.67522 1.02331 -3.83736
lowerneck 5.86819 -0.00540042 0.499363
upperneck 3.67502 -0.111284 10.837
head 0.151911 -0.080411 3.40521
rclavicle 3.57812e-015 -9.54166e-015
rhumerus -22.8905 43.1475 -64.1167
rradius 139.808
rwrist -34.9675
rhand 62.9417 -41.8301
rfingers 7.12502
rthumb 74.9718 1.33236
lclavicle 3.57812e-015 -9.54166e-015
lhumerus 2.35433 -61.4137 45.3974
lradius 139.194
lwrist 27.9205
lhand -2.99713 -36.5716
lfingers 7.12502
lthumb 22.7167 -7.88882
rfemur -9.5266 20.302 24.3914
rtibia 7.87566
rfoot -14.1134 -24.26
rtoes -0.536532
lfemur -5.66478 -31.671 -4.45958
ltibia 0.201611
lfoot -10.9503 40.0794
ltoes -4.46568
895
root 0.242115 17.6296 8.59233 12.3404 1.69794 -9.86741
lowerback 7.77425 1.53597 3.74374
upperback 1.65953 2.29238 -1.61803
thorax -2.42281 1.11683 -4.00121
lowerneck 5.04708 -0.0945256 0.799547
upperneck 6.08058 -0.470916 10.6107
head 1.08501 -0.136751 3.28627
rclavicle -9.54166e-015 2.8625e-014
rhumerus -22.4743 43.2416 -63.8988
rradius 139.712
rwrist -35.0805
rhand 62.8671 -41.8711
rfingers 7.12502
rthumb 74.9693 1.01369
lclavicle -9.54166e-015 2.8625e-014
lhumerus 3.59393 -61.6223 44.2417
lradius 139.029
lwrist 28.0098
lhand -2.90243 -36.3937
lfingers 7.12502
lthumb 22.8076 -7.72206
rfemur -9.68368 20.3574 24.416
rtibia 7.85727
rfoot -14.0189 -24.298
rtoes -0.642852
lfemur -5.71163 -32.0261 -4.31972
ltibia 0.0486773
lfoot -11.1222 40.5363
ltoes -3.85786
896
root 0.243297 17.6314 8.5914 12.3603 1.66542 -9.88344
lowerback 7.7466 1.6446 3.82913
upperback 1.85592 2.43602 -1.78086
thorax -2.17906 1.19769 -4.22566
lowerneck 4.15594 -0.288733 0.932111
upperneck 9.24072 -1.04509 10.368
head 2.30739 -0.273954 3.22652
rclavicle 1.15295e-014 -1.27222e-014
rhumerus -22.0513 43.1821 -63.7707
rradius 139.637
rwrist -35.2225
rhand 62.9346 -41.9284
rfingers 7.12502
rthumb 74.9716 1.20757
lclavicle 1.15295e-014 -1.27222e-014
lhumerus 4.9745 -61.8202 42.931
lradius 138.95
lwrist 28.216
lhand -3.2021 -36.3198
lfingers 7.12502
lthumb 22.52 -7.61302
rfemur -9.67749 20.4129 24.431
rtibia 7.78292
rfoot -13.9274 -24.3702
rtoes -0.873874
lfemur -5.63363 -32.2768 -4.30296
ltibia -0.107747
lfoot -11.3671 40.8193
ltoes -3.28321
897
root 0.244391 17.6307 8.59079 12.3412 1.64857 -9.84761
lowerback 7.74784 1.69271 3.84476
upperback 2.01976 2.49653 -1.90206
thorax -1.99753 1.23568 -4.36179
lowerneck 2.74357 -0.387351 0.367924
upperneck 14.1261 -1.73467 10.8168
head 3.83186 -0.376379 3.21428
rclavicle -1.27222e-014 1.27222e-014
rhumerus -21.6119 43.2251 -63.6923
rradius 139.586
rwrist -35.4468
rhand 62.9897 -42.011
rfingers 7.12502
rthumb 74.9733 1.33026
lclavicle -1.27222e-014 1.27222e-014
lhumerus 5.92701 -61.9826 42.0945
lradius 138.979
lwrist 28.5779
lhand -3.37869 -36.1259
lfingers 7.12502
lthumb 22.3505 -7.39873
rfemur -9.60387 20.433 24.3955
rtibia 7.68355
rfoot -13.8701 -24.3908
rtoes -0.897983
lfemur -5.51021 -32.4515 -4.38437
ltibia -0.247212
lfoot -11.4667 40.9969
ltoes -3.10995
898
root 0.245944 17.6298 8.5905 12.3316 1.65932 -9.81113
lowerback 7.80449 1.75192 3.8911
upperback 2.08157 2.57673 -2.03564
thorax -1.94805 1.27828 -4.53497
lowerneck 1.22855 -0.813504 0.880787
upperneck 19.7414 -2.75165 9.76602
head 5.87237 -0.638349 2.82575
rclavicle 0 9.54166e-015
rhumerus -21.3013 43.0614 -63.6581
rradius 139.53
rwrist -35.8452
rhand 64.3526 -42.8443
rfingers 7.12502
rthumb 74.9524 5.5714
lclavicle 0 9.54166e-015
lhumerus 6.67966 -62.2551 41.5436
lradius 139.062
lwrist 29.0073
lhand -3.36572 -35.9253
lfingers 7.12502
lthumb 22.3629 -7.19963
rfemur -9.52977 20.4358 24.3501
rtibia 7.57377
rfoot -13.8138 -24.3959
rtoes -0.798888
lfemur -5.40915 -32.619 -4.45192
ltibia -0.398146
lfoot -11.3531 41.1465
ltoes -3.23123
899
root 0.248855 17.6314 8.59095 12.3925 1.70499 -9.80499
lowerback 7.93277 1.92635 4.12845
upperback 2.02043 2.82575 -2.27566
thorax -2.03142 1.39895 -4.94909
lowerneck -0.986304 -1.18664 1.65554
upperneck 26.7427 -3.73954 8.4105
head 8.61689 -0.835768 2.29314
rclavicle -7.15625e-015 3.18055e-015
rhumerus -21.7204 42.4566 -64.0742
rradius 139.592
rwrist -35.952
rhand 68.1562 -45.052
rfingers 7.12502
rthumb 74.2715 17.0012
lclavicle -7.15625e-015 3.18055e-015
lhumerus 7.91158 -62.733 40.614
lradius 139.133
lwrist 29.4009
lhand -3.5444 -36.0463
lfingers 7.12502
lthumb 22.1914 -7.30012
rfemur -9.55061 20.4458 24.2999
rtibia 7.49161
rfoot -13.8246 -24.388
rtoes -0.568025
lfemur -5.44882 -32.7498 -4.41332
ltibia -0.497548
lfoot -11.1937 41.2623
ltoes -3.38202
900
root 0.253253 17.6347 8.59215 12.541 1.77516 -9.82374
lowerback 7.99959 1.97247 4.26542
upperback 2.00026 2.89901 -2.33172
thorax -2.07083 1.43367 -5.0956
lowerneck -3.46368 -1.19438 1.36598
upperneck 33.6531 -4.34998 8.21262
head 11.7432 -0.877324 2.3814
rclavicle -1.90833e-014 0
rhumerus -21.8168 42.1776 -64.1348
rradius 139.728
rwrist -35.6859
rhand 68.0002 -45.3654
rfingers 7.12502
rthumb 74.3166 16.1565
lclavicle -1.90833e-014 0
lhumerus 7.9911 -62.6911 40.756
lradius 139.201
lwrist 29.5958
lhand -3.6805 -36.3006
lfingers 7.12502
lthumb 22.0607 -7.53891
rfemur -9.71074 20.4368 24.2393
rtibia 7.47099
rfoot -13.8718 -24.3897
rtoes -0.305226
lfemur -5.65315 -32.8196 -4.28992
ltibia -0.487322
lfoot -11.059 41.3294
ltoes -3.61135
901
root 0.258749 17.6385 8.59139 12.7296 1.87786 -9.88419
lowerback 7.95461 1.5904 3.98967
upperback 2.18703 2.37691 -1.92267
thorax -1.94399 1.18031 -4.45937
lowerneck -4.34137 -0.822167 1.29757
upperneck 37.0737 -3.46329 6.26395
head 13.3063 -0.611786 1.83506
rclavicle 1.82882e-014 7.95139e-015
rhumerus -19.937 42.7775 -62.5783
rradius 139.734
rwrist -35.8162
rhand 63.1829 -42.9148
rfingers 7.12502
rthumb 74.9777 1.14609
lclavicle 1.82882e-014 7.95139e-015
lhumerus 5.36547 -61.3893 43.2904
lradius 139.26
lwrist 29.2978
lhand -3.74597 -36.6004
lfingers 7.12502
lthumb 21.9979 -7.83131
rfemur -9.94994 20.3534 24.2251
rtibia 7.49781
rfoot -13.8363 -24.41
rtoes -0.359972
lfemur -5.97431 -32.772 -4.0789
ltibia -0.374539
lfoot -10.893 41.251
ltoes -4.03271
902
root 0.262613 17.6423 8.58701 12.8874 1.96971 -9.96097
lowerback 8.12768 2.0356 4.80879
upperback 2.24469 3.02504 -2.52039
thorax -1.83236 1.50931 -5.61158
lowerneck -4.51252 -1.09932 1.8768
upperneck 37.7967 -4.25721 7.00461
head 13.7352 -0.763581 1.95863
rclavicle 2.38542e-014 -1.59028e-015
rhumerus -21.4262 40.7477 -63.6139
rradius 139.96
rwrist -35.2792
rhand 61.93 -41.826
rfingers 7.12502
rthumb 74.9063 -2.41627
lclavicle 2.38542e-014 -1.59028e-015
lhumerus 8.359 -61.902 40.4832
lradius 139.428
lwrist 29.4561
lhand -3.95196 -36.4678
lfingers 7.12502
lthumb 21.8001 -7.67556
rfemur -10.1723 20.2823 24.2504
rtibia 7.53153
rfoot -13.7917 -24.4251
rtoes -0.352021
lfemur -6.30402 -32.6738 -3.82906
ltibia -0.247323
lfoot -10.7929 41.1025
ltoes -4.16709
903
root 0.261235 17.6443 8.58003 12.9897 2.00827 -9.99672
lowerback 8.34656 2.18978 5.10046
upperback 2.44358 3.25587 -2.71912
thorax -1.68651 1.63531 -6.01109
lowerneck -4.41784 -1.0958 1.84625
upperneck 37.1462 -4.48357 7.88221
head 13.4586 -0.781144 2.27064
rclavicle -7.15625e-015 -3.49861e-014
rhumerus -22.1808 39.747 -63.9708
rradius 140.243
rwrist -34.8119
rhand 62.5561 -41.4925
rfingers 7.12502
rthumb 74.9546 0.235993
lclavicle -7.15625e-015 -3.49861e-014
lhumerus 9.36017 -61.6486 39.506
lradius 139.541
lwrist 29.4323
lhand -4.0457 -36.2826
lfingers 7.12502
lthumb 21.7101 -7.47996
rfemur -10.3218 20.3734 24.2535
rtibia 7.51558
rfoot -13.806 -24.5473
rtoes 0.0397313
lfemur -6.54104 -32.619 -3.6432
ltibia -0.183238
lfoot -10.7979 40.9958
ltoes -3.90247
904
root 0.255835 17.645 8.57239 13.0809 2.0204 -9.98207
lowerback 8.50657 2.07376 4.78934
upperback 2.68705 3.08406 -2.53714
thorax -1.57416 1.55749 -5.62866
lowerneck -4.03124 -0.628953 1.10607
upperneck 35.1935 -3.69319 8.4595
head 12.4846 -0.528406 2.64934
rclavicle -2.38542e-014 -1.59028e-015
rhumerus -22.4015 39.8629 -63.8504
rradius 140.464
rwrist -34.4337
rhand 63.162 -41.3398
rfingers 7.12502
rthumb 74.9773 2.64297
lclavicle -2.38542e-014 -1.59028e-015
lhumerus 8.10783 -60.9219 40.5575
lradius 139.556
lwrist 29.1319
lhand -3.91274 -36.3166
lfingers 7.12502
lthumb 21.8377 -7.52878
rfemur -10.4218 20.4943 24.2136
rtibia 7.4353
rfoot -13.7872 -24.7236
rtoes 0.28449
lfemur -6.69312 -32.6682 -3.54226
ltibia -0.197956
lfoot -10.8983 41.0242
ltoes -3.51209
905
root 0.248734 17.6474 8.56512 13.2631 2.06804 -9.9529
lowerback 8.71776 1.90954 4.41489
upperback 2.75523 2.84667 -2.31687
thorax -1.68307 1.43477 -5.17268
lowerneck -1.86589 -0.75369 2.54874
upperneck 31.1593 -3.31561 7.28039
head 10.3573 -0.485576 1.86475
rclavicle -2.62396e-014 7.95139e-015
rhumerus -22.9779 40.4168 -63.9591
rradius 140.588
rwrist -34.1695
rhand 63.0771 -41.1166
rfingers 7.12502
rthumb 74.9756 2.54995
lclavicle -2.62396e-014 7.95139e-015
lhumerus 6.23904 -60.4786 42.0136
lradius 139.543
lwrist 28.6185
lhand -3.76845 -36.4442
lfingers 7.12502
lthumb 21.9763 -7.67263
rfemur -10.6062 20.571 24.1235
rtibia 7.33987
rfoot -13.6834 -24.8892
rtoes 0.251397
lfemur -6.94779 -32.7875 -3.3843
ltibia -0.258413
lfoot -10.8549 41.1733
ltoes -3.44547
